#!OML:ASF H:\Pregnant\Project 1\Capture day 1\Session 1\femalepreg.ASF
:FULLY-SPECIFIED
:DEGREES
3199
root 10.187 13.656 28.7025 569.952 -61.7663 -552.737
lowerback -12.6415 2.81843 -9.937
upperback -7.16477 4.26296 -2.40864
thorax -1.10912 2.16927 3.49582
lowerneck -24.6599 8.5974 12.9686
upperneck 31.7608 8.1063 -3.97826
head 16.2916 4.22311 -2.20764
rclavicle -1.36105e-014 -2.40529e-014
rhumerus -32.4027 -64.6418 26.3948
rradius 24.1732
rwrist 22.2015
rhand -25.6573 -21.8385
rfingers 7.12502
rthumb 0.876696 -51.8165
lclavicle -1.36105e-014 -2.40529e-014
lhumerus -19.0957 43.2784 -21.9174
lradius 29.8037
lwrist 23.2853
lhand -42.3125 9.879
lfingers 7.12502
lthumb -15.1962 39.301
rfemur -226.123 -173.346 158.879
rtibia 26.7929
rfoot -210.716 -236.049
rtoes 42.0781
lfemur 2.63212 20.7993 356.97
ltibia 4.77083e-015
lfoot -17.3991 -8.27794
ltoes -31.4199
3200
root 10.1854 13.6552 28.7053 569.839 -61.8178 -552.689
lowerback -12.6237 2.79968 -9.92106
upperback -7.18011 4.23034 -2.47709
thorax -1.12388 2.15055 3.41084
lowerneck -24.6338 8.62376 13.0135
upperneck 31.8269 8.08705 -3.87625
head 16.3143 4.23537 -2.17578
rclavicle -5.40384e-014 4.05521e-014
rhumerus -32.5827 -64.8801 26.9188
rradius 24.183
rwrist 22.2818
rhand -25.6911 -21.771
rfingers 7.12502
rthumb 0.844045 -51.7491
lclavicle -5.40384e-014 4.05521e-014
lhumerus -19.3247 43.2941 -21.8815
lradius 29.7576
lwrist 23.2297
lhand -42.2565 9.9502
lfingers 7.12502
lthumb -15.1423 39.3762
rfemur -226.007 -173.402 158.888
rtibia 26.7608
rfoot -210.804 -236.071
rtoes 42.0434
lfemur 2.68652 20.7532 357.026
ltibia 4.77083e-015
lfoot -17.4536 -8.28634
ltoes -31.5483
3201
root 10.1835 13.6543 28.7083 569.701 -61.8569 -552.628
lowerback -12.5946 2.78717 -9.89373
upperback -7.18655 4.20534 -2.53874
thorax -1.13563 2.1356 3.3272
lowerneck -24.6085 8.64962 13.051
upperneck 31.8661 8.07691 -3.78927
head 16.325 4.24839 -2.14684
rclavicle -3.7297e-014 1.39149e-014
rhumerus -32.7263 -65.0327 27.3749
rradius 24.2063
rwrist 22.2862
rhand -25.7634 -21.7343
rfingers 7.12502
rthumb 0.774301 -51.7126
lclavicle -3.7297e-014 1.39149e-014
lhumerus -19.5861 43.3317 -21.8495
lradius 29.7437
lwrist 23.2383
lhand -42.2076 10.0163
lfingers 7.12502
lthumb -15.0951 39.4458
rfemur -225.888 -173.446 158.913
rtibia 26.7238
rfoot -210.856 -236.073
rtoes 42.037
lfemur 2.76441 20.7163 357.089
ltibia 7.95139e-015
lfoot -17.4994 -8.29322
ltoes -31.6566
3202
root 10.1815 13.6531 28.7113 569.545 -61.8817 -552.56
lowerback -12.561 2.77746 -9.86301
upperback -7.18159 4.1853 -2.59231
thorax -1.13858 2.12304 3.25084
lowerneck -24.593 8.67621 13.0767
upperneck 31.8836 8.07676 -3.71328
head 16.3282 4.26253 -2.11801
rclavicle -1.13183e-014 3.06128e-014
rhumerus -32.8401 -65.1461 27.7707
rradius 24.239
rwrist 22.2521
rhand -25.9255 -21.7444
rfingers 7.12502
rthumb 0.617691 -51.7233
lclavicle -1.13183e-014 3.06128e-014
lhumerus -19.8882 43.4198 -21.8324
lradius 29.7502
lwrist 23.2726
lhand -42.1341 10.109
lfingers 7.12502
lthumb -15.0243 39.5439
rfemur -225.771 -173.475 158.954
rtibia 26.6844
rfoot -210.849 -236.057
rtoes 42.0607
lfemur 2.8639 20.6892 357.156
ltibia 3.18055e-015
lfoot -17.5398 -8.29134
ltoes -31.7809
3203
root 10.1792 13.6518 28.7145 569.376 -61.8937 -552.484
lowerback -12.5261 2.77325 -9.82509
upperback -7.16926 4.17302 -2.64297
thorax -1.13485 2.11406 3.17457
lowerneck -24.5806 8.70023 13.0961
upperneck 31.8789 8.0791 -3.6457
head 16.3213 4.27577 -2.09097
rclavicle -2.02263e-014 4.01545e-014
rhumerus -33.0352 -65.3367 28.2263
rradius 24.2823
rwrist 22.3023
rhand -26.1455 -21.7803
rfingers 7.12502
rthumb 0.405202 -51.7597
lclavicle -2.02263e-014 4.01545e-014
lhumerus -20.2031 43.537 -21.8164
lradius 29.7639
lwrist 23.3277
lhand -42.0506 10.2037
lfingers 7.12502
lthumb -14.9439 39.6446
rfemur -225.659 -173.513 158.995
rtibia 26.6458
rfoot -210.838 -236.039
rtoes 42.0881
lfemur 2.97992 20.6723 357.226
ltibia 2.70347e-014
lfoot -17.5686 -8.28977
ltoes -31.8735
3204
root 10.1766 13.6503 28.7175 569.204 -61.8888 -552.41
lowerback -12.4915 2.77422 -9.78745
upperback -7.15368 4.16807 -2.69678
thorax -1.12819 2.1085 3.09601
lowerneck -24.5711 8.72172 13.1157
upperneck 31.8605 8.07969 -3.58364
head 16.3085 4.28755 -2.06658
rclavicle 2.04251e-014 2.66371e-014
rhumerus -33.2319 -65.4908 28.6428
rradius 24.3288
rwrist 22.3395
rhand -26.3731 -21.8209
rfingers 7.12502
rthumb 0.185441 -51.8005
lclavicle 2.04251e-014 2.66371e-014
lhumerus -20.5152 43.6691 -21.8046
lradius 29.774
lwrist 23.3903
lhand -41.9396 10.3169
lfingers 7.12502
lthumb -14.8369 39.7657
rfemur -225.556 -173.533 159.043
rtibia 26.6113
rfoot -210.797 -236
rtoes 42.1351
lfemur 3.11349 20.6666 357.293
ltibia 1.59028e-014
lfoot -17.5879 -8.2911
ltoes -31.9313
3205
root 10.1737 13.6485 28.7201 569.043 -61.8665 -552.351
lowerback -12.4619 2.77999 -9.75804
upperback -7.13498 4.17114 -2.75338
thorax -1.11717 2.10685 3.02017
lowerneck -24.5749 8.73714 13.1108
upperneck 31.8382 8.07416 -3.50542
head 16.2934 4.29612 -2.03219
rclavicle 1.22936e-013 -1.39149e-014
rhumerus -33.5536 -65.7653 29.1652
rradius 24.3778
rwrist 22.4926
rhand -26.5289 -21.8252
rfingers 7.12502
rthumb 0.0348893 -51.8049
lclavicle 1.22936e-013 -1.39149e-014
lhumerus -20.8153 43.8005 -21.7882
lradius 29.7682
lwrist 23.4488
lhand -41.8228 10.419
lfingers 7.12502
lthumb -14.7245 39.8761
rfemur -225.466 -173.535 159.092
rtibia 26.585
rfoot -210.732 -235.938
rtoes 42.2
lfemur 3.25762 20.6715 357.348
ltibia -4.6118e-014
lfoot -17.6023 -8.28752
ltoes -31.9873
3206
root 10.1704 13.6465 28.7224 568.897 -61.8295 -552.308
lowerback -12.4359 2.78822 -9.73812
upperback -7.11899 4.17807 -2.81404
thorax -1.10815 2.10724 2.94575
lowerneck -24.5783 8.74904 13.1002
upperneck 31.8119 8.06502 -3.4246
head 16.2753 4.3029 -1.99662
rclavicle 4.84165e-014 1.98785e-015
rhumerus -33.8829 -66.0166 29.6621
rradius 24.423
rwrist 22.6337
rhand -26.6487 -21.8146
rfingers 7.12502
rthumb -0.0808017 -51.7943
lclavicle 4.84165e-014 1.98785e-015
lhumerus -21.0978 43.9063 -21.7701
lradius 29.7416
lwrist 23.5015
lhand -41.6976 10.4948
lfingers 7.12502
lthumb -14.6039 39.9606
rfemur -225.39 -173.519 159.137
rtibia 26.5707
rfoot -210.658 -235.854
rtoes 42.2819
lfemur 3.40742 20.685 357.391
ltibia 1.27222e-014
lfoot -17.6123 -8.2802
ltoes -32.0464
3207
root 10.1667 13.6442 28.7242 568.784 -61.7764 -552.299
lowerback -12.4137 2.79559 -9.73759
upperback -7.10762 4.18499 -2.87948
thorax -1.1036 2.108 2.87694
lowerneck -24.58 8.75873 13.0833
upperneck 31.7865 8.05377 -3.33908
head 16.2565 4.30871 -1.9586
rclavicle 1.03741e-014 -4.49253e-014
rhumerus -34.1858 -66.2271 30.0983
rradius 24.4616
rwrist 22.7395
rhand -26.6974 -21.7779
rfingers 7.12502
rthumb -0.127854 -51.7576
lclavicle 1.03741e-014 -4.49253e-014
lhumerus -21.3688 43.9781 -21.7574
lradius 29.6961
lwrist 23.5447
lhand -41.5849 10.5691
lfingers 7.12502
lthumb -14.4952 40.0428
rfemur -225.33 -173.468 159.181
rtibia 26.5715
rfoot -210.549 -235.737
rtoes 42.3811
lfemur 3.55909 20.7054 357.411
ltibia 4.77083e-015
lfoot -17.6215 -8.26465
ltoes -32.1201
3208
root 10.1629 13.6418 28.7255 568.704 -61.7104 -552.32
lowerback -12.3969 2.80101 -9.75506
upperback -7.10035 4.19063 -2.94797
thorax -1.10188 2.10847 2.81479
lowerneck -24.5796 8.76891 13.0676
upperneck 31.7625 8.04327 -3.25443
head 16.2381 4.31486 -1.92113
rclavicle -2.24875e-015 3.65764e-014
rhumerus -34.42 -66.3573 30.4264
rradius 24.4967
rwrist 22.7496
rhand -26.774 -21.753
rfingers 7.12502
rthumb -0.201776 -51.7327
lclavicle -2.24875e-015 3.65764e-014
lhumerus -21.6363 44.0204 -21.751
lradius 29.6425
lwrist 23.5743
lhand -41.481 10.6102
lfingers 7.12502
lthumb -14.3951 40.0911
rfemur -225.289 -173.401 159.212
rtibia 26.5876
rfoot -210.422 -235.609
rtoes 42.4859
lfemur 3.7075 20.732 357.41
ltibia -1.74931e-014
lfoot -17.6289 -8.24528
ltoes -32.2035
